MonoidDiacritics.sfdir
StartChar: A
Encoding: 65 65 29
Width: 1024
VWidth: 0
Flags: W
HStem: 0 21G<105.091 245.992 905.996 1046.91> 384 120<348.045 804.059> 1004.54 147.818<544.965 607.099>
VStem: 105.091 129.713<5.32907e-15 235.663> 917.196 129.713<0 235.739>
AnchorPoint: "bottom" 960 0 basechar 0
AnchorPoint: "top" 576 1152 basechar 0
LayerCount: 5
Back
SplineSet
113 -330 m 1
 163 -40 l 2
 198.18044803 164.046598577 236.466310086 368.334448316 302.096369538 564.715133748 c 0
 367.726428989 761.09581918 459.201494108 949.029864199 576 1120 c 1
 692.798505892 949.029864199 784.273571011 761.09581918 849.903630462 564.715133748 c 0
 915.533689914 368.334448316 953.81955197 164.046598577 989 -40 c 2
 1039 -330 l 1025
  Spiro
    113 -330 {
    163 -40 ]
    576 1120 v
    989 -40 [
    1039 -330 o
    0 0 z
  EndSpiro
EndSplineSet
Fore
SplineSet
522.10546875 1152.36035156 m 1
 629.89453125 1152.36035156 l 1
 850.990758237 828.718693152 968.816197939 478.431035459 1046.90898477 0 c 1
 917.196239438 0 l 1
 894.796425506 139.407898747 869.094013983 266.207788177 838.250473168 384 c 1
 313.829372848 384 l 1
 282.931614873 266.120418918 257.180578093 139.274293211 234.803760655 0 c 1
 105.090869209 5.3290705182e-15 l 1
 183.103853279 477.971001193 301.189708642 828.982861387 522.10546875 1152.36035156 c 1
348.045281032 504 m 1
 804.059379861 504 l 1
 747.664521782 686.211480153 675.953680709 847.884516397 581 1004.54199219 c 1
 571 1004.54199219 l 1
 476.303228108 848.308783688 404.534930953 686.441385302 348.045281032 504 c 1
EndSplineSet
Layer: 2
SplineSet
105.090869209 5.3290705182e-15 m 5
 138.990226706 194.658995533 177.065621384 391.275421493 241.024414062 582.654296875 c 4
 308.241210938 783.784179688 402.002929688 976.553710938 522.10546875 1152.36035156 c 5
 629.89453125 1152.36035156 l 5
 749.997070312 976.553710938 843.758789062 783.784179688 910.975585938 582.654296875 c 4
 974.934286784 391.275696275 1013.00966396 194.659560137 1046.90898477 0 c 5
 917.196239438 0 l 5
 884.392245019 186.621291052 847.599365046 370.924600828 788.831054688 546.77734375 c 4
 735.279296875 707.016601562 664.377929688 860.870117188 576 1004.54199219 c 5
 488.543945312 862.369140625 416.654296875 706.815429688 363.168945312 546.776367188 c 4
 304.400635009 370.924521629 267.60775505 186.621284947 234.803760655 0 c 5
 105.090869209 5.3290705182e-15 l 5
EndSplineSet
Layer: 3
SplineSet
522.10546875 1152.36035156 m 5
 629.89453125 1152.36035156 l 5
 850.990758237 828.718693152 968.816197939 478.431035459 1046.90898477 0 c 5
 917.196239438 0 l 5
 894.796425506 139.407898747 869.094013983 266.207788177 838.250473168 384 c 5
 313.829372848 384 l 5
 282.931614873 266.120418918 257.180578093 139.274293211 234.803760655 0 c 5
 105.090869209 5.3290705182e-15 l 5
 183.103853279 477.971001193 301.189708642 828.982861387 522.10546875 1152.36035156 c 5
348.045281032 504 m 5
 804.059379861 504 l 5
 747.664521782 686.211480153 675.953680709 847.884516397 581 1004.54199219 c 5
 571 1004.54199219 l 5
 476.303228108 848.308783688 404.534930953 686.441385302 348.045281032 504 c 5
EndSplineSet
Layer: 4
EndChar
StartChar: C
Encoding: 67 67 31
Width: 1024
VWidth: 0
Flags: W
HStem: -16 120<443.242 931.402> 1048 120<443.265 931.425>
VStem: 112 128<328.337 823.674>
AnchorPoint: "top" 576 1152 basechar 0
AnchorPoint: "bottom" 704 0 basechar 0
LayerCount: 5
Back
SplineSet
1134.79980469 201.791992188 m 5
 1169.20019531 86.20703125 l 5
 1111.25488281 71.0498046875 1053.11523438 55.822265625 994.63671875 41.0625 c 4
 924.822265625 23.4423828125 852.940429688 5.8681640625 778.014648438 -5.26171875 c 4
 734.126953125 -11.779296875 689.180664062 -16 642.99609375 -16 c 5
 542.689453125 -15.9892578125 437.331054688 5.927734375 347.790039062 63.5263671875 c 4
 260.482421875 119.688476562 197.8828125 203.892578125 161.272460938 295.484375 c 4
 125.004882812 386.219726562 112 482.494140625 112 576 c 4
 112 669.505859375 125.004882812 765.779296875 161.272460938 856.515625 c 4
 197.8828125 948.107421875 260.482421875 1032.31054688 347.791015625 1088.47363281 c 4
 437.350585938 1146.08398438 542.733398438 1167.99414062 643.0703125 1168 c 4
 689.084960938 1168 734.172851562 1163.77246094 778.014648438 1157.26074219 c 4
 852.938476562 1146.1328125 924.823242188 1128.55859375 994.638671875 1110.9375 c 4
 1053.11328125 1096.17773438 1111.25488281 1080.95019531 1169.20117188 1065.79296875 c 5
 1134.79882812 950.208007812 l 5
 1076.82910156 965.372070312 1019.06054688 980.5 961.361328125 995.063476562 c 4
 892.293945312 1012.49609375 824.745117188 1028.82324219 757.985351562 1038.73925781 c 4
 719.106445312 1044.51367188 680.684570312 1048 643.0703125 1048 c 4
 562.116210938 1047.99511719 483.088867188 1029.97460938 420.208984375 989.526367188 c 4
 358.9765625 950.137695312 310.078125 886.819335938 281.133789062 814.407226562 c 4
 251.846679688 741.138671875 240 659.114257812 240 576 c 4
 240 492.884765625 251.846679688 410.861328125 281.133789062 337.592773438 c 4
 310.078125 265.1796875 358.9765625 201.862304688 420.209960938 162.473632812 c 4
 483.064453125 122.041992188 562.10546875 104.008789062 643.006835938 104 c 4
 680.766601562 104 719.06640625 107.479492188 757.985351562 113.260742188 c 4
 824.743164062 123.176757812 892.294921875 139.504882812 961.36328125 156.936523438 c 4
 1019.05859375 171.499023438 1076.82910156 186.62890625 1134.79980469 201.791992188 c 5
EndSplineSet
Fore
SplineSet
643.006835938 104 m 4
 784.537880294 104 902.990627246 141.715535583 1024 172.934697304 c 5
 1024 48.5175729583 l 5
 906.576221702 18.5397164643 786.537728268 -16 642.99609375 -16 c 4
 299.700444042 -15.9632352732 112 213.393755226 112 576 c 4
 112 938.568963967 299.590863816 1167.97994183 643.0703125 1168 c 4
 786.494780814 1168 906.652671299 1133.44197243 1024 1103.4825422 c 5
 1024 979.065195374 l 5
 903.024696167 1010.27447365 784.555559768 1048 643.0703125 1048 c 4
 369.611357193 1047.9835061 240 870.331609485 240 576 c 4
 240 281.739442266 369.538071195 104.029709437 643.006835938 104 c 4
EndSplineSet
Layer: 2
SplineSet
643.070697596 1108.00000368 m 0
 684.884880438 1108.00000368 726.639507266 1104.14338274 768 1098 c 0
 838.841840215 1087.4776752 908.558647086 1070.52666967 978 1053 c 0
 1036.08682056 1038.3391607 1094.04171329 1023.16100041 1152 1008 c 1
 976 640 l 1
 1152 144 l 1
 1094.04171329 128.838999587 1036.08682056 113.660839301 978 99 c 0
 908.558647086 81.4733303333 838.841840215 64.5223247964 768 54 c 0
 726.639507266 47.8566172622 684.884880438 43.9999963248 643.070697596 43.9999963248 c 0
 643 44 l 0
 552.399628427 44.0094200208 460.196918531 63.9851346604 384 113 c 0
 309.729099311 160.775924094 253.980001089 234.536369276 221.202861652 316.538593285 c 0
 188.425722215 398.540817294 176 487.689719669 176 576 c 0
 176 664.310280331 188.425722215 753.459182706 221.202861652 835.461406715 c 0
 253.980001089 917.463630724 309.729099311 991.224075906 384 1039 c 0
 460.219627275 1088.0294731 552.424658159 1107.99529147 643.070697596 1108.00000368 c 0
  Spiro
    643 1108 o
    768 1098 o
    978 1053 o
    1152 1008 v
    976 640 v
    1152 144 v
    978 99 o
    768 54 o
    643 44 o
    384 113 o
    176 576 o
    384 1039 o
    0 0 z
  EndSpiro
EndSplineSet
Layer: 3
Layer: 4
EndChar
StartChar: G
Encoding: 71 71 35
Width: 1024
VWidth: 0
Flags: W
HStem: -16 120<443.402 894.218> 520 120<640 896> 1048 120<443.402 1006.1>
VStem: 112 128<328.306 823.694> 896 128<128 520>
AnchorPoint: "bottom" 704 0 basechar 0
AnchorPoint: "top" 576 1152 basechar 0
LayerCount: 5
Back
SplineSet
673 1168 m 4
 778 1168 881 1159 974 1146 c 5
 974 1026 l 5
 877 1039 769 1048 673 1048 c 4
 443 1048 313 933 268 760 c 4
 243 663 240 557 240 448 c 4
 240 339 243 233 268 136 c 4
 312 -36 430 -152 643 -152 c 4
 724 -152 811 -143 896 -128 c 5
 896 392 l 5
 640 392 l 5
 640 512 l 5
 1024 512 l 5
 1024 -222 l 5
 907 -250 777 -272 643 -272 c 4
 366 -272 199 -114 143 108 c 4
 114 222 112 338 112 448 c 4
 112 558 114 674 143 788 c 4
 200 1011 379 1168 673 1168 c 4
EndSplineSet
Fore
SplineSet
896 128 m 5
 896 520 l 5
 640 520 l 5
 640 640 l 5
 1024 640 l 5
 1024 33 l 5
 907 8.38461538462 787 -16 643 -16 c 4
 300 -16 112 213 112 576 c 4
 112 939 300 1168 643 1168 c 4
 791.120734908 1168 906.992125984 1155.70153846 1011 1141 c 5
 1011 1021 l 5
 906.128608924 1035.20735786 789.188976378 1048 643 1048 c 4
 370 1048 240 870 240 576 c 4
 240 282 370 104 643 104 c 4
 735.120981786 104 817.141240128 114.616033824 896.432617188 127.692382812 c 5
 896 128 l 5
EndSplineSet
Layer: 2
Layer: 3
Layer: 4
EndChar
StartChar: H
Encoding: 72 72 36
Width: 1024
VWidth: 0
Flags: W
HStem: 0 21G<128 256 896 1024> 513 120<256 896> 1132 20G<128 256 896 1024>
VStem: 128 128<0 513 633 1152> 896 128<0 513 633 1152>
AnchorPoint: "top" 576 1152 basechar 0
LayerCount: 5
Back
Fore
SplineSet
128 1152 m 5
 256 1152 l 5
 256 633 l 5
 896 633 l 5
 896 1152 l 5
 1024 1152 l 5
 1024 0 l 1
 896 0 l 1
 896 513 l 5
 256 513 l 5
 256 0 l 1
 128 0 l 1
 128 1152 l 5
EndSplineSet
Layer: 2
Layer: 3
Layer: 4
EndChar
StartChar: L
Encoding: 76 76 40
Width: 1024
VWidth: 0
Flags: W
HStem: 0 120<384 1024> 1132 20G<256 384>
VStem: 256 128<120 1152>
AnchorPoint: "bottom" 576 0 basechar 0
AnchorPoint: "top" 320 1152 basechar 0
LayerCount: 5
Back
Fore
SplineSet
256 0 m 1
 256 1152 l 5
 384 1152 l 5
 384 120 l 1
 1024 120 l 1
 1024 0 l 1
 256 0 l 1
EndSplineSet
Layer: 2
Layer: 3
Layer: 4
EndChar
StartChar: y
Encoding: 121 121 24
Width: 1024
VWidth: 0
Flags: W
HStem: -400 114<256 436.159> 1004 20G<201 357.5 791.5 951>
VStem: 201 135<738.402 1024> 816 135<816.403 1024>
LayerCount: 5
Back
SplineSet
201 1024 m 1
 336 1024 l 1
 366 667.231213873 442 363.820809249 571 119 c 1
 581 119 l 1
 710 363.821289062 786 667.231445312 816 1024 c 1
 951 1024 l 1
 919.984375 663 832.75390625 318 636 0 c 1
 516 0 l 1
 319.246153846 318 232.015384615 663 201 1024 c 1
  Spiro
    201 1024 v
    336 1024 v
    381.531 685.532 o
    459.502 382.874 o
    571 119 v
    581 119 v
    692.498 382.874 o
    770.469 685.532 o
    816 1024 v
    951 1024 v
    899.346 669.09 o
    798.091 326.258 o
    636 0 v
    516 0 v
    353.909 326.258 o
    252.654 669.09 o
    0 0 z
  EndSpiro
EndSplineSet
Fore
SplineSet
497 0 m 1
 317 328 241 663 201 1024 c 1
 336 1024 l 1
 379 651 458 332 592 78 c 1
 602 78 l 1
 701 406 767 720 816 1024 c 1
 951 1024 l 1
 865.550724638 580 771.502312321 142.38749374 616 -273 c 4
 595.620579403 -327.438781772 546.873512477 -371.413412928 474 -385 c 0
 415 -396 341 -400 256 -400 c 1
 256 -286 l 1
 339 -286 399.055433687 -285.302106184 438 -278 c 0
 470 -272 490.033173388 -247.015058703 505 -214 c 0
 539 -139 560 -79 585 0 c 1
 497 0 l 1
EndSplineSet
Layer: 2
SplineSet
391 -728 m 5
 391 -728 1005.36170213 962.091816367 1216 1536 c 1029
  Spiro
    391 -728 {
    557.788 -269.387 o
    908.89 694.973 o
    1216 1536 v
    0 0 z
  EndSpiro
653 5 m 5
 64 1536 l 1029
  Spiro
    653 5 {
    64 1536 v
    0 0 z
  EndSpiro
EndSplineSet
Layer: 3
SplineSet
596 -54 m 1
 466 -358 l 2
 457.563898426 -377.727499064 448.453103785 -397.460990346 434.85359019 -414.056027528 c 0
 421.254076596 -430.65106471 403.53896582 -443.783312939 383.822117037 -452.244276427 c 0
 364.105268254 -460.705239913 342.71200732 -464.662751865 321.32882854 -466.42391464 c 0
 299.94564976 -468.185077414 278.455582701 -468.000000003 257 -468 c 2
 256 -468 l 1025
  Spiro
    596 -54 {
    466 -358 ]
    257 -468 [
    256 -468 o
    0 0 z
  EndSpiro
EndSplineSet
Layer: 4
EndChar
StartChar: Atilde
Encoding: 195 195 99
Width: 1024
VWidth: 0
Flags: HW
HStem: 0 21G<105.091 245.992 905.996 1046.91> 384 120<348.045 804.059> 1004.54 147.818<544.965 607.099> 1284 120<623.658 756.749> 1412 120<395.276 528.342>
VStem: 105.091 129.713<5.32907e-15 235.663> 253 128<1305 1405.1> 771 128<1411.78 1511> 917.196 129.713<0 235.739>
LayerCount: 5
Back
Refer: 94 126 N 1 0 0 1 0 1036 2
Refer: 29 65 N 1 0 0 1 0 0 3
Fore
SplineSet
522.10546875 1152.36035156 m 1
 629.89453125 1152.36035156 l 1
 850.991210938 828.71875 968.81640625 478.430664062 1046.90917969 0 c 1
 917.196289062 0 l 1
 894.796875 139.408203125 869.09375 266.208007812 838.25 384 c 1
 313.829101562 384 l 1
 282.931640625 266.120117188 257.180664062 139.274414062 234.803710938 0 c 1
 105.090820312 0 l 1
 183.103515625 477.970703125 301.189453125 828.982421875 522.10546875 1152.36035156 c 1
348.044921875 504 m 1
 804.059570312 504 l 1
 747.6640625 686.211914062 675.954101562 847.884765625 581 1004.54199219 c 1
 571 1004.54199219 l 1
 476.303710938 848.30859375 404.53515625 686.44140625 348.044921875 504 c 1
448 1412 m 0
 397 1412 384 1353 381 1299 c 1
 253 1305 l 1
 257 1423 319 1532 448 1532 c 0
 594 1532 627 1404 704 1404 c 0
 755 1404 768 1463 771 1517 c 1
 899 1511 l 1
 896 1395 833 1284 704 1284 c 0
 558 1284 525 1412 448 1412 c 0
EndSplineSet
Layer: 2
Layer: 3
Layer: 4
EndChar
StartChar: Aring
Encoding: 197 197 156
Width: 1024
VWidth: 0
Flags: HW
HStem: 0 21G<105.091 245.992 905.996 1046.91> 384 120<348.045 804.059> 1004.54 147.818<544.965 607.099> 1068 100<481.917 670.083> 1424 100<481.917 670.083>
VStem: 105.091 129.713<5.32907e-15 235.663> 348 108<1191.59 1400.41> 696 108<1191.59 1400.41> 917.196 129.713<0 235.739>
LayerCount: 5
Back
Fore
SplineSet
522.10546875 1152.36035156 m 1xef80
 629.89453125 1152.36035156 l 1
 850.991210938 828.71875 968.81640625 478.430664062 1046.90917969 0 c 1
 917.196289062 0 l 1
 894.796875 139.408203125 869.09375 266.208007812 838.25 384 c 1
 313.829101562 384 l 1
 282.931640625 266.120117188 257.180664062 139.274414062 234.803710938 0 c 1
 105.090820312 0 l 1
 183.103515625 477.970703125 301.189453125 828.982421875 522.10546875 1152.36035156 c 1xef80
348.044921875 504 m 1
 804.059570312 504 l 1
 747.6640625 686.211914062 675.954101562 847.884765625 581 1004.54199219 c 1
 571 1004.54199219 l 1
 476.303710938 848.30859375 404.53515625 686.44140625 348.044921875 504 c 1
576 1424 m 0xdf80
 506.313476562 1424 456 1378.86425781 456 1296 c 0
 456 1213.13671875 506.311523438 1168 576 1168 c 0
 645.686523438 1168 696 1213.13671875 696 1296 c 0
 696 1378.86328125 645.6875 1424 576 1424 c 0xdf80
576 1524 m 0
 711.306640625 1524 804 1423.19140625 804 1296 c 0
 804 1168.80957031 711.307617188 1068 576 1068 c 0
 440.694335938 1068 348 1168.80957031 348 1296 c 0
 348 1423.19042969 440.692382812 1524 576 1524 c 0
EndSplineSet
Layer: 2
Layer: 3
Layer: 4
EndChar
StartChar: Iacute
Encoding: 205 205 119
Width: 1024
VWidth: 0
Flags: HW
HStem: 0 120<256 512 640 896> 1032 120<256 512 640 896> 1280 256
VStem: 488 304 512 128<120 1032>
LayerCount: 5
Back
Fore
SplineSet
896 1152 m 5
 896 1032 l 5
 640 1032 l 5
 640 120 l 1
 896 120 l 1
 896 0 l 1
 256 0 l 1
 256 120 l 1
 512 120 l 1
 512 1032 l 5xe8
 256 1032 l 5
 256 1152 l 5
 896 1152 l 5
488 1280 m 5xf0
 626 1280 l 5
 792 1536 l 5
 654 1536 l 5
 488 1280 l 5xf0
EndSplineSet
Layer: 2
Layer: 3
Layer: 4
EndChar
StartChar: agrave
Encoding: 224 224 150
Width: 1024
VWidth: 0
Flags: W
HStem: -16 120<415.338 660.379> 0 21G<768 896> 512 110<418.102 768> 920 120<324.118 738.851> 1152 21G<513.031 664> 1388 20G<360 510.969>
VStem: 224 128<166.196 443.733> 768 128<0 123 211.392 512 622 892.213>
LayerCount: 5
Back
Fore
SplineSet
768 512 m 5xbf
 572 512 l 6
 517 512 459 512 408 458 c 4
 372 420 352 362 352 303 c 4
 352 194 417 104 532 104 c 4
 761.8125 104 768 341.336914062 768 471 c 6
 768 512 l 5xbf
608 1040 m 4
 704 1040 805 1021 866 913 c 4
 896 860 896 785 896 749 c 6
 896 0 l 5
 768 0 l 5x7f
 768 123 l 5
 758 123 l 5
 694 35 617 -16 508 -16 c 4
 349.825195312 -16 224 116.146484375 224 301 c 4
 224 383 249 470 312 533 c 4
 402 622 512 622 574 622 c 6
 768 622 l 5
 768 744 l 6
 768 788 768 831 750 862 c 4
 729 898 696 920 608 920 c 4
 520 920 408 910 320 899 c 5
 320 1021 l 5
 407 1031 516 1040 608 1040 c 4
664 1152 m 1
 526 1152 l 1
 360 1408 l 1
 498 1408 l 1
 664 1152 l 1
EndSplineSet
Layer: 2
Layer: 3
Layer: 4
EndChar
StartChar: acircumflex
Encoding: 226 226 152
Width: 1024
VWidth: 0
Flags: W
HStem: -16 120<415.338 660.379> 0 21G<768 896> 512 110<418.102 768> 920 120<324.118 738.851> 1152 21G<200 384.591 767.409 952> 1388 20G<473.797 678.203>
VStem: 224 128<166.196 443.733> 768 128<0 123 211.392 512 622 892.213>
LayerCount: 5
Back
Fore
SplineSet
768 512 m 5xbf
 572 512 l 6
 517 512 459 512 408 458 c 4
 372 420 352 362 352 303 c 4
 352 194 417 104 532 104 c 4
 761.8125 104 768 341.336914062 768 471 c 6
 768 512 l 5xbf
608 1040 m 4
 704 1040 805 1021 866 913 c 4
 896 860 896 785 896 749 c 6
 896 0 l 5
 768 0 l 5x7f
 768 123 l 5
 758 123 l 5
 694 35 617 -16 508 -16 c 4
 349.825195312 -16 224 116.146484375 224 301 c 4
 224 383 249 470 312 533 c 4
 402 622 512 622 574 622 c 6
 768 622 l 5
 768 744 l 6
 768 788 768 831 750 862 c 4
 729 898 696 920 608 920 c 4
 520 920 408 910 320 899 c 5
 320 1021 l 5
 407 1031 516 1040 608 1040 c 4
497 1408 m 1
 655 1408 l 1
 952 1152 l 1
 794 1152 l 1
 576 1315.96289062 l 1
 358 1152 l 1
 200 1152 l 1
 497 1408 l 1
EndSplineSet
Layer: 2
Layer: 3
Layer: 4
EndChar
StartChar: atilde
Encoding: 227 227 153
Width: 1024
VWidth: 0
Flags: HW
HStem: -16 120<416.403 660.71> 0 21G<768 896> 512 110<418.102 768> 920 120<324.593 738.851> 1156 120<623.658 756.749> 1284 120<395.276 528.342>
VStem: 224 128<169.682 443.733> 253 128<1177 1277.1> 768 128<0 123 195.803 512 622 892.213> 771 128<1283.78 1383>
LayerCount: 5
Back
Fore
SplineSet
768 512 m 5xbc
 572 512 l 6
 517 512 459 512 408 458 c 4
 372 420 352 362 352 303 c 4
 352 194 425 104 532 104 c 4
 638 104 715 162 746 235 c 4
 768 287 768 349 768 421 c 6
 768 512 l 5xbc
608 1040 m 4
 704 1040 805 1021 866 913 c 4
 896 860 896 785 896 749 c 6
 896 0 l 5
 768 0 l 5x7c
 768 123 l 5
 758 123 l 5
 694 35 617 -16 508 -16 c 4
 455 -16 347 10 283 106 c 4
 249 157 224 224 224 301 c 4
 224 383 249 470 312 533 c 4
 402 622 512 622 574 622 c 6
 768 622 l 5
 768 744 l 6
 768 788 768 831 750 862 c 4
 729 898 696 920 608 920 c 4
 520 920 408 910 320 899 c 5
 320 1021 l 5
 407 1031 516 1040 608 1040 c 4
448 1284 m 0
 397 1284 384 1225 381 1171 c 1
 253 1177 l 1
 257 1295 319 1404 448 1404 c 0
 594 1404 627 1276 704 1276 c 0
 755 1276 768 1335 771 1389 c 1
 899 1383 l 1
 896 1267 833 1156 704 1156 c 0
 558 1156 525 1284 448 1284 c 0
EndSplineSet
Layer: 2
Layer: 3
Layer: 4
EndChar
StartChar: aring
Encoding: 229 229 157
Width: 1024
VWidth: 0
Flags: HW
HStem: -16 120<416.403 660.71> 0 21G<768 896> 512 110<418.102 768> 920 120<324.593 738.851> 940 100<481.917 670.083> 1296 100<481.917 670.083>
VStem: 224 128<169.682 443.733> 348 108<1063.59 1272.41> 696 108<1063.59 1272.41> 768 128<0 123 195.803 512 622 892.213>
LayerCount: 5
Back
Fore
SplineSet
768 512 m 5xbc
 572 512 l 6
 517 512 459 512 408 458 c 4
 372 420 352 362 352 303 c 4
 352 194 425 104 532 104 c 4
 638 104 715 162 746 235 c 4
 768 287 768 349 768 421 c 6
 768 512 l 5xbc
608 1040 m 4
 704 1040 805 1021 866 913 c 4
 896 860 896 785 896 749 c 6
 896 0 l 5
 768 0 l 5x7c
 768 123 l 5
 758 123 l 5
 694 35 617 -16 508 -16 c 4
 455 -16 347 10 283 106 c 4
 249 157 224 224 224 301 c 4
 224 383 249 470 312 533 c 4
 402 622 512 622 574 622 c 6
 768 622 l 5
 768 744 l 6
 768 788 768 831 750 862 c 4
 729 898 696 920 608 920 c 4
 520 920 408 910 320 899 c 5
 320 1021 l 5
 407 1031 516 1040 608 1040 c 4
576 1296 m 0
 506.313476562 1296 456 1250.86425781 456 1168 c 0
 456 1085.13671875 506.311523438 1040 576 1040 c 0
 645.686523438 1040 696 1085.13671875 696 1168 c 0
 696 1250.86328125 645.6875 1296 576 1296 c 0
576 1396 m 0
 711.306640625 1396 804 1295.19140625 804 1168 c 0
 804 1040.80957031 711.307617188 940 576 940 c 0
 440.694335938 940 348 1040.80957031 348 1168 c 0
 348 1295.19042969 440.692382812 1396 576 1396 c 0
EndSplineSet
Layer: 2
Layer: 3
Layer: 4
EndChar
StartChar: Amacron
Encoding: 256 256 176
Width: 1024
VWidth: 0
Flags: HW
HStem: 0 21G<105.091 245.992 905.996 1046.91> 384 120<348.045 804.059> 1004.54 147.818<544.965 607.099> 1416 120<256 896>
VStem: 105.091 129.713<5.32907e-15 235.663> 256 640<1416 1536> 917.196 129.713<0 235.739>
LayerCount: 5
Back
Fore
SplineSet
522.10546875 1152.36035156 m 1
 629.89453125 1152.36035156 l 1
 850.991210938 828.71875 968.81640625 478.430664062 1046.90917969 0 c 1
 917.196289062 0 l 1
 894.796875 139.408203125 869.09375 266.208007812 838.25 384 c 1
 313.829101562 384 l 1
 282.931640625 266.120117188 257.180664062 139.274414062 234.803710938 0 c 1
 105.090820312 0 l 1
 183.103515625 477.970703125 301.189453125 828.982421875 522.10546875 1152.36035156 c 1
348.044921875 504 m 1
 804.059570312 504 l 1
 747.6640625 686.211914062 675.954101562 847.884765625 581 1004.54199219 c 1
 571 1004.54199219 l 1
 476.303710938 848.30859375 404.53515625 686.44140625 348.044921875 504 c 1
256 1536 m 5
 896 1536 l 5
 896 1416 l 5
 256 1416 l 5
 256 1536 l 5
EndSplineSet
Layer: 2
Layer: 3
Layer: 4
EndChar
StartChar: ccaron
Encoding: 269 269 184
Width: 1024
VWidth: 0
Flags: W
HStem: -16 120<450.346 890.029> 920 120<450.346 890.029>
VStem: 224 128<209.807 814.193>
LayerCount: 5
Back
Fore
SplineSet
224 512 m 0
 224 633.270507812 226 738 264 831 c 0
 311 946 417.376953125 1040 586 1040 c 0
 668.55859375 1040 768.595703125 1025.40136719 896 999 c 1
 896 876 l 1
 767.84765625 903.083007812 662.2421875 920 586 920 c 0
 485 920 420 872 384 789 c 0
 352 716 352 613.502929688 352 512 c 1
 352 410.497070312 352 308 384 235 c 0
 420 152 485 104 586 104 c 0
 662.2421875 104 767.84765625 120.916992188 896 148 c 1
 896 25 l 1
 768.595703125 -1.4013671875 668.55859375 -16 586 -16 c 0
 417.376953125 -16 311 78 264 193 c 0
 226 286 224 390.729492188 224 512 c 0
497 1152 m 5
 655 1152 l 5
 952 1408 l 5
 794 1408 l 5
 576 1244.03710938 l 5
 358 1408 l 5
 200 1408 l 5
 497 1152 l 5
EndSplineSet
Layer: 2
Layer: 3
Layer: 4
EndChar
StartChar: Gcircumflex
Encoding: 284 284 204
Width: 1024
VWidth: 0
Flags: W
HStem: -16 120<443.402 894.218> 520 120<640 896> 1048 120<443.402 1006.1>
VStem: 112 128<328.306 823.694> 896 128<128 520>
LayerCount: 5
Back
Fore
SplineSet
896 128 m 5
 896 520 l 5
 640 520 l 5
 640 640 l 5
 1024 640 l 5
 1024 33 l 5
 907 8.384765625 787 -16 643 -16 c 4
 300 -16 112 213 112 576 c 4
 112 939 300 1168 643 1168 c 4
 791.12109375 1168 906.9921875 1155.70117188 1011 1141 c 5
 1011 1021 l 5
 906.12890625 1035.20703125 789.189453125 1048 643 1048 c 4
 370 1048 240 870 240 576 c 4
 240 282 370 104 643 104 c 4
 735.12109375 104 817.141601562 114.616210938 896.432617188 127.692382812 c 5
 896 128 l 5
497 1536 m 1
 655 1536 l 1
 952 1280 l 1
 794 1280 l 1
 576 1443.96289062 l 1
 358 1280 l 1
 200 1280 l 1
 497 1536 l 1
EndSplineSet
Layer: 2
Layer: 3
Layer: 4
EndChar
StartChar: Gbreve
Encoding: 286 286 206
Width: 1024
VWidth: 0
Flags: HW
HStem: -16 120<446.703 892.628> 520 120<640 896> 1176 120<446.669 927.707> 1392 120<418.7 733.3>
VStem: 112 128<342.773 937.204> 236 128<1563.55 1664> 788 128<1563.55 1664> 896 128<130.442 520>
LayerCount: 5
Back
Fore
SplineSet
896 140 m 1
 896 520 l 1
 640 520 l 1
 640 640 l 1
 1024 640 l 1
 1024 49 l 1
 907 19 787 -16 643 -16 c 0
 300 -16 112 213 112 576 c 0
 112 939 300 1168 643 1168 c 0
 786 1168 907 1133 1024 1103 c 1
 1024 979 l 1
 903 1010 784 1048 643 1048 c 0
 370 1048 240 870 240 576 c 0
 240 282 370 104 643 104 c 0
 735.12109375 104 817.141601562 119.993164062 896.432617188 139.692382812 c 1
 896 140 l 1
788 1536 m 5
 916 1536 l 5
 916 1367.94628906 764.259765625 1264 576 1264 c 4
 387.739257812 1264 236 1367.94433594 236 1536 c 5
 364 1536 l 5
 364 1449.65527344 433.061523438 1384 576 1384 c 4
 718.939453125 1384 788 1449.65332031 788 1536 c 5
EndSplineSet
Layer: 2
Layer: 3
Layer: 4
EndChar
StartChar: gbreve
Encoding: 287 287 207
Width: 1024
VWidth: 0
Flags: HW
HStem: -528 120<260.158 677.227> -16 120<445.978 668.384> 920 120<445.978 668.384> 1004 20G<768 896> 1136 120<418.7 733.3> 1388 20G<236 364 788 916>
VStem: 224 128<213.326 810.674 1320.49 1408> 768 128<-309.979 125 212.637 811.363 899 1024> 788 128<1307.55 1408>
LayerCount: 5
Back
Fore
SplineSet
540 1040 m 4xec
 623 1040 699 991 758 899 c 5
 768 899 l 5
 768 1024 l 5
 896 1024 l 5xdc
 896 32 l 6
 896 -28 896 -139 835 -241 c 4
 780 -333 684 -400 536 -400 c 4
 443 -400 345 -378 256 -361 c 5
 256 -238 l 5
 344 -255 448 -280 536 -280 c 4
 632 -280 687 -241 724 -182 c 4
 768 -111 768 -15 768 32 c 6
 768 125 l 5
 758 125 l 5
 699 33 623 -16 540 -16 c 4
 409 -16 299 71 252 221 c 4
 224 311 224 400 224 512 c 4
 224 624 224 713 252 803 c 4
 299 953 409 1040 540 1040 c 4xec
560 920 m 4xec
 464 920 404 847 378 768 c 4
 353 692 352 604 352 512 c 4
 352 420 353 332 378 256 c 4
 404 177 464 104 560 104 c 4
 656 104 716 177 742 256 c 4
 767 332 768 420 768 512 c 4
 768 604 767 692 742 768 c 4
 716 847 656 920 560 920 c 4xec
788 1408 m 5
 916 1408 l 5
 916 1239.94628906 764.259765625 1136 576 1136 c 4
 387.739257812 1136 236 1239.94433594 236 1408 c 5
 364 1408 l 5
 364 1321.65527344 433.061523438 1256 576 1256 c 4
 718.939453125 1256 788 1321.65332031 788 1408 c 5
EndSplineSet
Layer: 2
Layer: 3
Layer: 4
EndChar
StartChar: Gdotaccent
Encoding: 288 288 208
Width: 1024
VWidth: 0
Flags: W
HStem: -16 120<443.402 894.218> 520 120<640 896> 1048 120<443.402 1006.1> 1328 224<485.032 666.968>
VStem: 112 128<328.306 823.694> 464 224<1349.03 1530.97> 896 128<128 520>
LayerCount: 5
Back
Fore
SplineSet
896 128 m 5
 896 520 l 5
 640 520 l 5
 640 640 l 5
 1024 640 l 5
 1024 33 l 5
 907 8.384765625 787 -16 643 -16 c 4
 300 -16 112 213 112 576 c 4
 112 939 300 1168 643 1168 c 4
 791.12109375 1168 906.9921875 1155.70117188 1011 1141 c 5
 1011 1021 l 5
 906.12890625 1035.20703125 789.189453125 1048 643 1048 c 4
 370 1048 240 870 240 576 c 4
 240 282 370 104 643 104 c 4
 735.12109375 104 817.141601562 114.616210938 896.432617188 127.692382812 c 5
 896 128 l 5
576 1552 m 4
 642 1552 688 1506 688 1440 c 4
 688 1374 642 1328 576 1328 c 4
 510 1328 464 1374 464 1440 c 4
 464 1506 510 1552 576 1552 c 4
EndSplineSet
Layer: 2
Layer: 3
Layer: 4
EndChar
StartChar: uni0122
Encoding: 290 290 274
Width: 1024
VWidth: 0
Flags: W
HStem: -528 120<512 611.002> -16 120<443.402 894.218> 520 120<640 896> 1048 120<443.402 1006.1>
VStem: 112 128<328.306 823.694> 640 128<-361.261 -128> 896 128<128 520>
LayerCount: 5
Back
Fore
SplineSet
896 128 m 5
 896 520 l 5
 640 520 l 5
 640 640 l 5
 1024 640 l 5
 1024 33 l 5
 907 8.384765625 787 -16 643 -16 c 4
 300 -16 112 213 112 576 c 4
 112 939 300 1168 643 1168 c 4
 791.12109375 1168 906.9921875 1155.70117188 1011 1141 c 5
 1011 1021 l 5
 906.12890625 1035.20703125 789.189453125 1048 643 1048 c 4
 370 1048 240 870 240 576 c 4
 240 282 370 104 643 104 c 4
 735.12109375 104 817.141601562 114.616210938 896.432617188 127.692382812 c 5
 896 128 l 5
768 -233 m 6
 768 -293 767.727539062 -362.798828125 716 -433 c 4
 674 -490 602.005859375 -528 512 -528 c 4
 512 -408 l 4
 559 -408 590.879882812 -390.909179688 612 -363 c 4
 640 -326 640 -283 640 -233 c 6
 640 -128 l 5
 768 -128 l 5
 768 -233 l 6
EndSplineSet
Layer: 2
Layer: 3
Layer: 4
EndChar
StartChar: Iogonek
Encoding: 302 302 271
Width: 1024
VWidth: 0
Flags: W
HStem: -400 120<651.912 894.146> -20 20G<737.38 896> 0 120<256 512 640 896> 1160 120<256 512 640 896>
VStem: 512 128<-262.716 -135.229 120 1160>
LayerCount: 5
Back
Fore
SplineSet
896 1280 m 1xb8
 896 1160 l 1
 640 1160 l 1
 640 120 l 1
 896 120 l 1xb8
 896 0 l 1xd8
 256 0 l 1
 256 120 l 1
 512 120 l 1
 512 1160 l 1
 256 1160 l 1
 256 1280 l 1
 896 1280 l 1xb8
767 -280 m 0
 813 -280 857 -270 896 -260 c 1
 896 -383 l 1
 856 -391 813 -400 767 -400 c 0
 653 -400 512 -325 512 -205 c 0
 512 -57 706.760742188 -63 768 0 c 5
 896 0 l 1xd8
 854.838867188 -91 640 -103 640 -198 c 0
 640 -258 710 -280 767 -280 c 0
EndSplineSet
Layer: 2
Layer: 3
Layer: 4
EndChar
StartChar: Lacute
Encoding: 313 313 280
Width: 1024
VWidth: 0
Flags: HW
HStem: 0 120<384 1024> 1260 20G<256 384>
VStem: 256 128<120 1280>
LayerCount: 5
Back
Fore
SplineSet
256 0 m 1
 256 1152 l 5
 384 1152 l 5
 384 120 l 1
 1024 120 l 1
 1024 0 l 1
 256 0 l 1
232 1280 m 5
 370 1280 l 5
 536 1536 l 5
 398 1536 l 5
 232 1280 l 5
EndSplineSet
Layer: 2
Layer: 3
Layer: 4
EndChar
StartChar: lacute
Encoding: 314 314 284
Width: 1024
VWidth: 0
Flags: W
HStem: -16 120<668.725 896> 1132 20G<512 640>
VStem: 512 128<149.787 1152>
LayerCount: 5
Back
Fore
SplineSet
896 -11 m 5
 858 -13 813 -16 758 -16 c 4
 686 -16 627 9 585 52 c 4
 512 128 512 218 512 279 c 6
 512 1152 l 5
 640 1152 l 5
 640 279 l 6
 640 232 640 186 668 148 c 4
 688 121 719 104 768 104 c 4
 810 104 860 106 896 109 c 5
 896 -11 l 5
488 1280 m 5
 626 1280 l 5
 792 1536 l 5
 654 1536 l 5
 488 1280 l 5
EndSplineSet
Layer: 2
Layer: 3
Layer: 4
EndChar
StartChar: Uogonek
Encoding: 370 370 266
Width: 1024
VWidth: 0
Flags: W
HStem: -400 120<395.912 638.146> -16 16<512 640> 1260 20G<128 256 896 1024>
VStem: 128 128<254.095 1280> 256 128<-262.716 -135.229> 896 128<254.095 1280>
LayerCount: 5
Back
Fore
SplineSet
128 1280 m 1xf4
 256 1280 l 1
 256 512 l 2
 256 437 256 378 268 330 c 0
 301.4140625 196.345703125 416 104 576 104 c 0
 736 104 850.5859375 196.345703125 884 330 c 0
 896 378 896 437 896 512 c 2
 896 1280 l 1
 1024 1280 l 1
 1024 512 l 2
 1024 426 1024.1328125 371.350585938 1008 303 c 0
 964.392578125 118.24609375 797 -16 576 -16 c 0
 355 -16 187.248046875 118.162109375 144 303 c 0
 128 371.381835938 128 426 128 512 c 2
 128 1280 l 1xf4
511 -280 m 0
 557 -280 601 -270 640 -260 c 1
 640 -383 l 1
 600 -391 557 -400 511 -400 c 0
 397 -400 256 -325 256 -205 c 0
 256 -57 450.760742188 -63 512 0 c 5
 640 0 l 1
 598.838867188 -91 384 -103 384 -198 c 0xec
 384 -258 454 -280 511 -280 c 0
EndSplineSet
Layer: 2
Layer: 3
Layer: 4
EndChar
StartChar: uni0200
Encoding: 512 512 300
Width: 1024
VWidth: 0
Flags: HW
HStem: 0 21G<103 244.3 907.7 1049> 388 120<330 821> 1043 109<541.317 610.56>
VStem: 103 135<0 263.706> 914 135<0 263.706>
LayerCount: 5
Back
Fore
SplineSet
522.10546875 1152.36035156 m 1
 629.89453125 1152.36035156 l 1
 850.991210938 828.71875 968.81640625 478.430664062 1046.90917969 0 c 1
 917.196289062 0 l 1
 894.796875 139.408203125 869.09375 266.208007812 838.25 384 c 1
 313.829101562 384 l 1
 282.931640625 266.120117188 257.180664062 139.274414062 234.803710938 0 c 1
 105.090820312 0 l 1
 183.103515625 477.970703125 301.189453125 828.982421875 522.10546875 1152.36035156 c 1
348.044921875 504 m 1
 804.059570312 504 l 1
 747.6640625 686.211914062 675.954101562 847.884765625 581 1004.54199219 c 1
 571 1004.54199219 l 1
 476.303710938 848.30859375 404.53515625 686.44140625 348.044921875 504 c 1
408 1280 m 5
 270 1280 l 5
 104 1536 l 5
 242 1536 l 5
 408 1280 l 5
792 1280 m 5
 654 1280 l 5
 488 1536 l 5
 626 1536 l 5
 792 1280 l 5
EndSplineSet
Layer: 2
Layer: 3
Layer: 4
EndChar
StartChar: uni0202
Encoding: 514 514 303
Width: 1024
VWidth: 0
Flags: W
HStem: 0 21G<105.091 245.992 905.997 1046.91> 384 120<348.045 804.06> 1004.54 147.818<544.965 607.099> 1432 120<418.7 733.3>
VStem: 105.091 129.713<0 235.663> 236 128<1280 1380.45> 788 128<1280 1380.45> 917.196 129.713<0 235.74>
LayerCount: 5
Back
Fore
SplineSet
522.10546875 1152.36035156 m 1
 629.89453125 1152.36035156 l 1
 850.991210938 828.71875 968.81640625 478.430664062 1046.90917969 0 c 1
 917.196289062 0 l 1
 894.796875 139.408203125 869.09375 266.208007812 838.25 384 c 1
 313.829101562 384 l 1
 282.931640625 266.120117188 257.180664062 139.274414062 234.803710938 0 c 1
 105.090820312 0 l 1
 183.103515625 477.970703125 301.189453125 828.982421875 522.10546875 1152.36035156 c 1
348.044921875 504 m 1
 804.059570312 504 l 1
 747.6640625 686.211914062 675.954101562 847.884765625 581 1004.54199219 c 1
 571 1004.54199219 l 1
 476.303710938 848.30859375 404.53515625 686.44140625 348.044921875 504 c 1
788 1280 m 5
 788 1366.34667969 718.939453125 1432 576 1432 c 4
 433.061523438 1432 364 1366.34472656 364 1280 c 5
 236 1280 l 5
 236 1448.05566406 387.739257812 1552 576 1552 c 4
 764.259765625 1552 916 1448.05371094 916 1280 c 5
 788 1280 l 5
EndSplineSet
Layer: 2
Layer: 3
Layer: 4
EndChar
StartChar: uni021B
Encoding: 539 539 328
Width: 1024
VWidth: 0
Flags: W
HStem: -528 120<512 611.002> -16 120<572.655 893.284> 898 126<128 384 512 896> 1260 20G<384 512>
VStem: 384 128<164.223 898 1024 1280> 640 128<-361.261 -128>
LayerCount: 5
Back
Fore
SplineSet
896 18.72265625 m 1
 835.625 -1.0419921875 768.551757812 -16 694 -16 c 0
 588 -16 504 29 452 92 c 0
 384.188476562 174.15625 384 270.530273438 384 360 c 2
 384 898 l 1
 128 898 l 1
 128 1024 l 1
 384 1024 l 1
 384 1280 l 1
 512 1280 l 1
 512 1024 l 1
 896 1024 l 1
 896 898 l 1
 512 898 l 1
 512 370 l 2
 512 284.29296875 512 218 555 166 c 0
 586.658203125 127.71484375 637 104 704 104 c 0
 771.977539062 104 840.822265625 124.811523438 896 147.0546875 c 1
 896 18.72265625 l 1
768 -233 m 6
 768 -293 767.727539062 -362.798828125 716 -433 c 4
 674 -490 602.005859375 -528 512 -528 c 4
 512 -408 l 4
 559 -408 590.879882812 -390.909179688 612 -363 c 4
 640 -326 640 -283 640 -233 c 6
 640 -128 l 5
 768 -128 l 5
 768 -233 l 6
EndSplineSet
Layer: 2
Layer: 3
Layer: 4
EndChar
